<svg xmlns="http://www.w3.org/2000/svg" viewBox="0 0 96 96" width="96" height="96" role="img" aria-labelledby="title desc">
  <title id="title">Relay — OpenBot headset avatar</title>
  <desc id="desc">Frameless, transparent, original vector artwork. Dark surface edition; micro optical size.</desc>
  <g id="silhouette"><rect x="6" y="44" width="13" height="25" rx="6.5" fill="#E8EBDD"/><rect x="77" y="44" width="13" height="25" rx="6.5" fill="#E8EBDD"/><path d="M11 52v9m74-9v9" stroke="#92ACFF" stroke-width="4" stroke-linecap="round"/><path d="M17 45C17 33 25 26 38 26H58C71 26 79 33 79 45V72C79 83 69 88 48 88C27 88 17 83 17 72Z" fill="#E8EBDD"/></g>
  <path id="accent" d="M17 70C33 74 63 74 79 70V73C79 83 68 88 48 88C28 88 17 83 17 73Z" fill="#92ACFF"/>
  <g id="eyes" fill="#20251F"><rect x="30" y="44" width="12" height="20" rx="6"/><rect x="54" y="44" width="12" height="20" rx="6"/></g>
</svg>
